/* XPM */
static char *password_gorilla[] = {
/* columns rows colors chars-per-pixel */
"32 32 256 2",
"   c #0C0A04",
".  c #140E04",
"X  c #14120C",
"o  c #1C1614",
"O  c #1C1A1C",
"+  c #1C1E1C",
"@  c #1C2224",
"#  c #24160C",
"$  c #241A0C",
"%  c #242224",
"&  c #242624",
"*  c #242A2C",
"=  c #2C2624",
"-  c #2C2A2C",
";  c #2C2E2C",
":  c #343234",
">  c #343634",
",  c #3C260C",
"<  c #3C3A3C",
"1  c #3C3E3C",
"2  c #442A0C",
"3  c #443E34",
"4  c #443E3C",
"5  c #444244",
"6  c #444644",
"7  c #4C2E0C",
"8  c #4C4E4C",
"9  c #54320C",
"0  c #543A14",
"q  c #545254",
"w  c #545654",
"e  c #5C3A14",
"r  c #5C3E14",
"t  c #5C5A54",
"y  c #643E14",
"u  c #644214",
"i  c #64461C",
"p  c #645A4C",
"a  c #646664",
"s  c #6C4214",
"d  c #6C4614",
"f  c #6C461C",
"g  c #6C4A1C",
"h  c #6C4A24",
"j  c #6C4E2C",
"k  c #6C563C",
"l  c #6C5A3C",
"z  c #6C6254",
"x  c #6C6664",
"c  c #6C6A6C",
"v  c #6C6E6C",
"b  c #6C6E74",
"n  c #744614",
"m  c #744A14",
"M  c #744A1C",
"N  c #744E1C",
"B  c #744E24",
"V  c #745224",
"C  c #74522C",
"Z  c #74562C",
"A  c #745A3C",
"S  c #745A44",
"D  c #74624C",
"F  c #746654",
"G  c #74665C",
"H  c #747274",
"J  c #747A7C",
"K  c #7C4A1C",
"L  c #7C4E1C",
"P  c #7C4E24",
"I  c #7C5224",
"U  c #7C522C",
"Y  c #7C562C",
"T  c #7C5634",
"R  c #7C5E3C",
"E  c #7C5E44",
"W  c #7C5E4C",
"Q  c #7C624C",
"!  c #7C664C",
"~  c #7C6A54",
"^  c #7C6A5C",
"/  c #7C6E5C",
"(  c #7C6E64",
")  c #7C7674",
"_  c #7C7A74",
"`  c #7C7A7C",
"'  c #7C7E7C",
"]  c #844E1C",
"[  c #84521C",
"{  c #84562C",
"}  c #845A2C",
"|  c #845A34",
" . c #845E34",
".. c #846244",
"X. c #846644",
"o. c #846E54",
"O. c #84725C",
"+. c #847A74",
"@. c #848684",
"#. c #84868C",
"$. c #8C6E4C",
"%. c #8C765C",
"&. c #8C7A64",
"*. c #8C7E74",
"=. c #8C826C",
"-. c #8C8684",
";. c #8C8A8C",
":. c #8C8E8C",
">. c #8C8E94",
",. c #94663C",
"<. c #946A44",
"1. c #94724C",
"2. c #947A54",
"3. c #948674",
"4. c #948A84",
"5. c #948E84",
"6. c #948E8C",
"7. c #949294",
"8. c #949694",
"9. c #9C5E3C",
"0. c #9C6A4C",
"q. c #9C6E44",
"w. c #9C7E64",
"e. c #9C8674",
"r. c #9C8E84",
"t. c #9C928C",
"y. c #9C9A9C",
"u. c #9C9E9C",
"i. c #9CA2A4",
"p. c #A47E64",
"a. c #A48A6C",
"s. c #A48A74",
"d. c #A4A29C",
"f. c #A4A2A4",
"g. c #AC764C",
"h. c #AC7A54",
"j. c #AC7E64",
"k. c #AC9A84",
"l. c #ACA69C",
"z. c #ACA6A4",
"x. c #ACAAAC",
"c. c #ACAEAC",
"v. c #B47E64",
"b. c #B49E84",
"n. c #B4A28C",
"m. c #B4AEAC",
"M. c #B4B2AC",
"N. c #B4B6B4",
"B. c #B4C6CC",
"V. c #BC6234",
"C. c #BCB29C",
"Z. c #BCB6AC",
"A. c #BCBEBC",
"S. c #BCCED4",
"D. c #C48654",
"F. c #C4865C",
"G. c #C4BEAC",
"H. c #C4BEBC",
"J. c #C4C6C4",
"K. c #C4CACC",
"L. c #CC865C",
"P. c #CC8A54",
"I. c #CC8A5C",
"U. c #CC8E64",
"Y. c #CCBEAC",
"T. c #CCC2B4",
"R. c #CCCAC4",
"E. c #CCCACC",
"W. c #CCCECC",
"Q. c #D48E54",
"!. c #D49264",
"~. c #D4926C",
"^. c #D4C6B4",
"/. c #D4D2D4",
"(. c #D4D6D4",
"). c #D4DEE4",
"_. c #DC9264",
"`. c #DC926C",
"'. c #DC966C",
"]. c #DCDADC",
"[. c #DCDEDC",
"{. c #DCDEE4",
"}. c #E4966C",
"|. c #E49A6C",
" X c #E4E2E4",
".X c #E4E6E4",
"XX c #E4E6EC",
"oX c #E4EAEC",
"OX c #EC9E6C",
"+X c #ECEAE4",
"@X c #ECEAEC",
"#X c #ECEEE4",
"$X c #ECEEEC",
"%X c #F4F2EC",
"&X c #F4F2F4",
"*X c #F4F6F4",
"=X c #FCFAFC",
"-X c #FCFEFC",
";X c #FFFFFF",
":X c #FFFFFF",
">X c #FFFFFF",
",X c #FFFFFF",
"<X c #FFFFFF",
"1X c #FFFFFF",
"2X c #FFFFFF",
"3X c #FFFFFF",
"4X c #FFFFFF",
"5X c #FFFFFF",
"6X c #FFFFFF",
"7X c #FFFFFF",
"8X c #FFFFFF",
"9X c #FFFFFF",
"0X c #FFFFFF",
"qX c #FFFFFF",
"wX c #FFFFFF",
"eX c #FFFFFF",
"rX c #FFFFFF",
"tX c #FFFFFF",
"yX c #FFFFFF",
"uX c #FFFFFF",
"iX c #FFFFFF",
"pX c #FFFFFF",
"aX c #FFFFFF",
"sX c #FFFFFF",
"dX c #FFFFFF",
"fX c #FFFFFF",
"gX c #FFFFFF",
"hX c #FFFFFF",
"jX c #FFFFFF",
"kX c #FFFFFF",
"lX c #FFFFFF",
"zX c #FFFFFF",
"xX c #FFFFFF",
"cX c #FFFFFF",
"vX c #FFFFFF",
"bX c #FFFFFF",
"nX c #FFFFFF",
"mX c #FFFFFF",
"MX c #FFFFFF",
"NX c #FFFFFF",
"BX c #FFFFFF",
"VX c #FFFFFF",
"CX c #FFFFFF",
"ZX c #FFFFFF",
"AX c #FFFFFF",
"SX c #FFFFFF",
"DX c #FFFFFF",
"FX c #FFFFFF",
"GX c #FFFFFF",
"HX c #FFFFFF",
"JX c #FFFFFF",
"KX c #FFFFFF",
"LX c #FFFFFF",
"PX c #FFFFFF",
"IX c #FFFFFF",
"UX c None",
/* pixels */
"UXUXUXUXUXUXUXUXUXUXUXUXUXUX        UXUXUXUXUXUXUXUXUXUXUXUXUXUX",
"UXUXUXUXUXUXUXUXUXUXUX        % % -       UXUXUXUXUXUXUXUXUXUXUX",
"UXUXUXUXUXUXUXUXUX      8 J u.u.x.u.` 8       UXUXUXUXUXUXUXUXUX",
"UXUXUXUXUXUXUX      ;.R.&X=X Xv -. X=X%XK.;.      UXUXUXUXUXUXUX",
"UXUXUXUXUXUX    #.oX-X=X-X{.k d K F .X-X=X-X+X#.    UXUXUXUXUXUX",
"UXUXUXUXUX    u.=X-X=X-X=X5.m ] [ m t.-X=X=X-X=Xf.    UXUXUXUXUX",
"UXUXUXUX    K.-X=X-X=X@Xl.p g. .Y ,.G z.].-X=X-X-XK.    UXUXUXUX",
"UXUXUX    u.-X-X=X-X(.+.Q S Q.P.D.Q.<.E ( J.-X=X=X=Xf.    UXUXUX",
"UXUXUX  @.=X=X=XR.3.g d q.E p.^ ( e.W <.g M ^ Z.*X-X=X;.  UXUXUX",
"UXUX    @X-X&Xd.T L [ ] f h.v.9.9.j.F.M ] [ m I 5..X-X@X    UXUX",
"UXUX  >.=X[...[ m [ m ] I I.L.V.V.L.!.{ m [ m [ ] A (.=X:.  UXUX",
"UX    E.[./ [ m [ ] [ m } _.|._._.`.'.| L ] m [ m [ R 4.A.    UX",
"UX  8 l.B m ] [ m ] m ]  .v.U.~.!.~.U.,.] m [ ] [ m [ [ _ q   UX",
"UX  w k [ ] m [ m [ ] [ } ~.OXOXOXOX|.0.m ] m [ m [ m [ O.H   UX",
"    t N ] m ] [ m [ m ] V g.|.}._.}.I.{ [ m [ m ] ] ] [ ! :.    ",
"  % x h L L m ] ] ] [ m ] L { U j { I K m [ ] [ m m m [ ~ d.%   ",
"  + x.O.[ m s [ m [ m ] L $.b.^.^.n.1.L ] [ m ] m r ] [ 6.x.+   ",
"    y.%.[ m r m [ m ] K w.+X-X-X-X-X$Xs.K m [ L d n L [ =.y.    ",
"UX  c $.m [ s s ] [ m X.-X-X-X@XXX-X-X-X2.] m ] y m ] ] X.a   UX",
"UX  : A [ ] m r ] m L C.-X-X{.i.i.[.-X-XY.L L u d L m [ V =   UX",
"UX    r [ m [ m 0 ] m T.-X-X).S.B.).-X-X^.L P *.h ] ] L s     UX",
"UXUX  2 ] ] m [ z A ] a.-X-XoXB.B.oX-X-Xk.] / +X&.L m [ 7   UXUX",
"UXUX    L m [ f .XJ.C M G.=X-X-X-X-X-XR.m A @X-XJ.Y [ m X   UXUX",
"UXUXUX  2 ] ] i @X-XM.j } s.#X-X-X*Xk.} Z A.=X=X$XO.[ 2   UXUXUX",
"UXUXUX    0 ] n (.=Xr.g y s y N N y s r i / [.-X.XX.e     UXUXUX",
"UXUXUXUX  . d M J.N.N ] m m d s d d m L ] ] o.[.].l     UXUXUXUX",
"UXUXUXUXUX    9 f.A [ [ m ] [ m L m ] [ m ] m D 7.    UXUXUXUXUX",
"UXUXUXUXUXUX    3 N ] m [ m [ k =.C ] m [ L L ,     UXUXUXUXUXUX",
"UXUXUXUXUXUXUX      7 s ] ] Q (.=Xm.C L s 7 .     UXUXUXUXUXUXUX",
"UXUXUXUXUXUXUXUXUX        $ ) c.c.u.6 # .     UXUXUXUXUXUXUXUXUX",
"UXUXUXUXUXUXUXUXUXUXUX                    UXUXUXUXUXUXUXUXUXUXUX",
"UXUXUXUXUXUXUXUXUXUXUXUXUXUX        UXUXUXUXUXUXUXUXUXUXUXUXUXUX"
};
